<?xml version="1.0" standalone="no"?><svg xmlns="http://www.w3.org/2000/svg" viewBox="0 0 1440 320"><path fill="rgba(0, 255, 255, 0.2)" fill-opacity="1" d="M0,224L20,208C40,192,80,160,120,154.7C160,149,200,171,240,149.3C280,128,320,64,360,64C400,64,440,128,480,176C520,224,560,256,600,256C640,256,680,224,720,224C760,224,800,256,840,229.3C880,203,920,117,960,85.3C1000,53,1040,75,1080,80C1120,85,1160,75,1200,106.7C1240,139,1280,213,1320,218.7C1360,224,1400,160,1420,128L1440,96L1440,0L1420,0C1400,0,1360,0,1320,0C1280,0,1240,0,1200,0C1160,0,1120,0,1080,0C1040,0,1000,0,960,0C920,0,880,0,840,0C800,0,760,0,720,0C680,0,640,0,600,0C560,0,520,0,480,0C440,0,400,0,360,0C320,0,280,0,240,0C200,0,160,0,120,0C80,0,40,0,20,0L0,0Z"></path></svg>
